<svg width="154" height="73" viewBox="0 0 154 73" fill="none" xmlns="http://www.w3.org/2000/svg">
<path d="M20.0567 26.3265H18.9439V47.6224L4.89909 27.6864C4.30813 26.8161 3.31502 26.3034 2.26204 26.3265H0.57666V51.6194C0.57666 53.3217 1.29195 54.1736 2.72253 54.1736H3.75095V33.0434L17.9216 52.6494C18.6615 53.6655 19.5947 54.1736 20.7229 54.1736H22.1228V28.8791C22.1228 27.1768 21.4367 26.3249 20.0644 26.3234M120.974 36.8762H119.878V52.3056C119.878 52.3056 115.502 52.6125 113.36 50.855C111.219 49.099 111.241 45.0161 111.241 45.0161V39.1617C111.241 37.6406 110.423 36.8808 108.788 36.8793H107.729V46.0997C107.729 46.0997 107.499 50.944 111.457 52.9211C114.877 54.631 119.9 54.1798 119.9 54.1798C119.896 55.3263 119.784 56.4699 119.565 57.595C119.368 58.5006 119.035 59.2297 118.567 59.7807C118.077 60.3441 117.436 60.7524 116.719 60.955C115.792 61.2083 114.834 61.3265 113.873 61.305H113.354L112.651 63.1774H113.609C115.476 63.1774 117.034 63.0179 118.286 62.6988C119.539 62.3792 120.531 61.8405 121.267 61.0824C122.004 60.3226 122.526 59.331 122.834 58.1077C123.141 56.8828 123.295 55.3647 123.295 53.5534V39.1571C123.295 37.639 122.515 36.8808 120.957 36.8793M96.094 36.8255H91.8421L92.4342 38.7136H96.1136C99.1789 38.7136 100.849 40.4419 101.122 43.8986H96.9977C94.376 43.8986 92.4667 44.3192 91.2678 45.1588C90.0689 45.9984 89.472 47.3446 89.4763 49.1957C89.4763 52.5542 91.8617 54.2334 96.6339 54.2334H99.4906L98.8242 52.3454H97.0763C95.5921 52.3454 94.5233 52.1229 93.868 51.6762C93.2128 51.2295 92.8857 50.4083 92.8857 49.2233C92.8857 48.0384 93.2066 47.1005 93.8496 46.5787C94.4926 46.0568 95.6792 45.7958 97.4106 45.7958H101.193V51.908C101.193 53.4644 101.985 54.2426 103.568 54.2411H104.717V44.3453C104.717 39.3383 101.848 36.8348 96.1105 36.8348M86.0472 37.0358C85.7557 37.2216 85.4735 37.6206 85.2048 38.2346L81.102 50.4713L77.3256 36.8286H75.823C74.8947 36.8286 74.2591 37.3321 73.918 38.3405L70.1072 50.2825L66.1112 38.2285C65.8443 37.6375 65.5498 37.2446 65.232 37.0497C64.9142 36.8516 64.4276 36.7534 63.7662 36.7534H61.4943L68.1267 53.8574C68.2973 54.2258 68.847 54.41 69.7771 54.41C70.7073 54.41 71.2429 54.2258 71.3902 53.8574L75.3488 41.4719L79.1233 53.8574C79.2202 54.2258 79.7571 54.41 80.7363 54.41C81.6634 54.41 82.2254 54.2258 82.4236 53.8574L88.8363 36.7534H87.443C86.8086 36.7534 86.3435 36.8455 86.0502 37.0297M56.6638 46.2962C56.6638 48.129 56.2678 49.6117 55.4758 50.7414C54.6837 51.8712 53.5079 52.4391 51.95 52.4437H51.1841C49.623 52.4437 48.4534 51.8712 47.6736 50.7246C46.8939 49.5795 46.5025 48.1028 46.4994 46.2962V44.7766C46.4994 42.8963 46.8954 41.4012 47.6874 40.2915C48.4794 39.1817 49.643 38.6276 51.1795 38.6307H51.9454C53.4788 38.6307 54.6485 39.1802 55.4558 40.2777C56.2632 41.3752 56.6654 42.8763 56.6623 44.7812V46.2962H56.6638ZM51.9484 36.7718H51.1825C48.6714 36.7718 46.877 37.4625 45.3912 38.844C43.9053 40.2255 43.1593 42.2025 43.1593 44.7735V46.3069C43.1424 47.449 43.342 48.5848 43.7442 49.6531C44.1049 50.6033 44.6666 51.4659 45.3912 52.1812C46.131 52.8919 47.0166 53.4322 47.9868 53.7638C49.0106 54.1383 50.0927 54.3225 51.1825 54.3087H51.9484C53.0459 54.3255 54.1373 54.1413 55.1673 53.7638C56.1374 53.4322 57.023 52.8919 57.7629 52.1812C58.4858 51.4659 59.0461 50.6033 59.4083 49.6531C59.8135 48.5818 60.0131 47.4428 59.9947 46.2962V44.7628C59.9947 42.1917 59.264 40.2147 57.8012 38.8333C56.3384 37.4533 54.5318 36.7611 51.9484 36.7611M33.2696 36.7918H32.7938C31.727 36.7749 30.6663 36.9683 29.6748 37.3628C28.74 37.7189 27.8911 38.2715 27.1896 38.9852C26.4912 39.7128 25.9571 40.58 25.6194 41.5302C25.2418 42.6016 25.0561 43.7298 25.0699 44.8656V46.4144C25.0699 49.0192 25.8359 50.9855 27.3692 52.3117C28.9027 53.6394 30.8659 54.3041 33.595 54.3041H39.0027L38.3119 52.4237H33.5797C32.8905 52.4314 32.2089 52.2933 31.5781 52.017C30.9825 51.7545 30.4453 51.3784 29.994 50.9088C29.5381 50.4298 29.1851 49.865 28.9564 49.2449C28.7108 48.5833 28.588 47.8818 28.5926 47.1758V44.881C28.5926 43.0083 28.9257 41.4918 29.5919 40.3344C30.2581 39.1771 31.331 38.5984 32.8106 38.5984H33.2834C34.8168 38.5984 35.9021 39.0957 36.539 40.0919C37.1761 41.0866 37.4984 42.5801 37.503 44.5709H31.3708L30.7507 46.5633H40.4286C40.4762 46.2686 40.513 45.9509 40.5376 45.6239C40.5622 45.297 40.5745 44.9178 40.5745 44.4988C40.5791 39.3628 38.1446 36.7949 33.268 36.7949" fill="#1B1B96"/>
<path d="M137.545 34.6214C137.417 34.5585 137.29 34.4909 137.163 34.4249C143.2 34.5462 149.096 32.3205 153.675 28.2636C148.356 32.3021 141.648 34.0566 135.033 33.1432C130.553 30.078 126.874 25.1584 124.747 19.1614C122.429 12.9801 121.852 6.16488 123.238 0.333618C119.916 10.8403 122.022 24.2037 131.262 32.3435C129.158 31.725 127.136 30.85 125.245 29.7372C119.221 26.1792 116.034 20.3863 116.034 20.3863C117.059 23.3902 119.253 27.4808 125.863 31.2706C128.243 32.6398 130.842 33.5899 133.544 34.0765C136.863 36.2193 140.84 37.1034 144.755 36.5708C143.749 36.5171 142.75 36.3759 141.769 36.1502C140.291 35.8586 138.867 35.3459 137.543 34.6275" fill="#E96024"/>
<path d="M4.29453 63.3529H4.7765C4.87627 63.3529 4.92693 63.3989 4.92693 63.4922V68.6496C4.92693 69.1485 4.78725 69.5368 4.50942 69.8166C4.23159 70.0939 3.84479 70.2338 3.3536 70.2338H2.16555C1.67283 70.2338 1.28602 70.0939 1.00512 69.8166C0.722691 69.5387 0.583008 69.1503 0.583008 68.6496V63.5032C0.583008 63.4032 0.633659 63.3529 0.733434 63.3529H1.21541C1.31518 63.3529 1.36583 63.4032 1.36583 63.5032V68.6177C1.36583 69.2374 1.66054 69.5491 2.25457 69.5491H3.25997C3.8586 69.5491 4.15945 69.2393 4.15945 68.6177V63.5032C4.15945 63.4032 4.2055 63.3529 4.29913 63.3529H4.29453Z" fill="#1B1B96"/>
<path d="M6.63679 70.2326H6.15485C6.05504 70.2326 6.00439 70.1829 6.00439 70.0817V64.9242C6.00439 64.8249 6.05351 64.7739 6.15485 64.7739H6.63679C6.73655 64.7739 6.78723 64.8249 6.78723 64.9242V65.3421H6.83018C7.02976 64.9641 7.40887 64.7739 7.9645 64.7739H8.36055C8.98833 64.7739 9.42272 65.0163 9.66525 65.5016C9.78035 65.2666 9.96 65.0856 10.2055 64.9611C10.4527 64.8371 10.7105 64.7739 10.9822 64.7739H11.3568C11.8418 64.7739 12.2194 64.9138 12.4911 65.1918C12.7628 65.4697 12.8979 65.8593 12.8979 66.3581V70.0817C12.8979 70.1817 12.8488 70.2326 12.7475 70.2326H12.2655C12.1657 70.2326 12.115 70.1829 12.115 70.0817V66.3906C12.115 65.7703 11.8157 65.4586 11.2171 65.4586H10.8641C10.5417 65.4586 10.2946 65.5495 10.1211 65.7317C9.94613 65.9145 9.85864 66.1618 9.85864 66.4747V70.0805C9.85864 70.1799 9.80802 70.2308 9.70826 70.2308H9.22626C9.1265 70.2308 9.07582 70.1817 9.07582 70.0805V66.3888C9.07582 65.7685 8.77653 65.4574 8.17636 65.4574H7.78031C7.45955 65.4574 7.21242 65.5433 7.04204 65.7133C6.87012 65.8851 6.7857 66.128 6.7857 66.4409V70.0786C6.7857 70.1787 6.73502 70.2296 6.63525 70.2296L6.63679 70.2326Z" fill="#1B1B96"/>
<path d="M15.9034 70.2326H15.3462C14.855 70.2326 14.4667 70.0928 14.1857 69.8148C13.9033 69.5369 13.7637 69.1485 13.7637 68.6485V66.3581C13.7637 65.8593 13.9048 65.4697 14.1857 65.1918C14.4667 64.9138 14.855 64.7739 15.3462 64.7739H17.6686C17.7683 64.7739 17.819 64.8249 17.819 64.9242V70.0817C17.819 70.1817 17.7699 70.2326 17.6686 70.2326H17.1866C17.0868 70.2326 17.0377 70.1829 17.0377 70.0817V69.6645H16.9947C16.8167 70.0418 16.4529 70.2308 15.9034 70.2308V70.2326ZM17.0377 68.5626V65.5556C17.0377 65.4912 17.0009 65.4586 16.9302 65.4586H15.4321C14.8396 65.4586 14.5434 65.7685 14.5434 66.3906V68.6159C14.5434 69.2362 14.8396 69.5479 15.4321 69.5479H16.0415C16.3639 69.5479 16.6095 69.462 16.7799 69.2915C16.9517 69.1197 17.0377 68.8767 17.0377 68.5638V68.5626Z" fill="#1B1B96"/>
<path d="M24.86 70.2326H22.5913C22.1002 70.2326 21.7118 70.0928 21.4309 69.8148C21.1485 69.5369 21.0088 69.1485 21.0088 68.6485V66.3581C21.0088 65.8593 21.15 65.4697 21.4309 65.1918C21.7118 64.9138 22.1002 64.7739 22.5913 64.7739H23.4908C23.9835 64.7739 24.3688 64.9138 24.6466 65.1918C24.9244 65.4697 25.0641 65.8593 25.0641 66.3581V67.7165C25.0641 67.8239 25.015 67.876 24.9137 67.876H21.8852C21.8131 67.876 21.7778 67.9085 21.7778 67.973V68.6252C21.7778 69.2454 22.0772 69.5571 22.6773 69.5571H24.86C24.9598 69.5571 25.0105 69.6062 25.0105 69.7056V70.0909C25.0105 70.1836 24.9613 70.2308 24.86 70.2308V70.2326ZM21.8852 67.3116H24.1969C24.269 67.3116 24.3028 67.276 24.3028 67.2042V66.3796C24.3028 65.7654 24.0035 65.4586 23.4033 65.4586H22.6757C22.0772 65.4586 21.7763 65.7654 21.7763 66.3796V67.2042C21.7763 67.276 21.8131 67.3116 21.8837 67.3116H21.8852Z" fill="#1B1B96"/>
<path d="M26.5606 70.2326H26.0786C25.9788 70.2326 25.9282 70.1829 25.9282 70.0817V64.9242C25.9282 64.8249 25.9773 64.7739 26.0786 64.7739H26.5606C26.6604 64.7739 26.711 64.8249 26.711 64.9242V65.3421H26.754C26.9536 64.9641 27.3327 64.7739 27.8883 64.7739H28.2844C28.9121 64.7739 29.3465 65.0163 29.5891 65.5016C29.7042 65.2666 29.8838 65.0856 30.1294 64.9611C30.3765 64.8371 30.6344 64.7739 30.906 64.7739H31.2806C31.7656 64.7739 32.1433 64.9138 32.4149 65.1918C32.6866 65.4697 32.8217 65.8593 32.8217 66.3581V70.0817C32.8217 70.1817 32.7726 70.2326 32.6713 70.2326H32.1893C32.0895 70.2326 32.0388 70.1829 32.0388 70.0817V66.3906C32.0388 65.7703 31.7395 65.4586 31.1409 65.4586H30.7879C30.4655 65.4586 30.2184 65.5495 30.0449 65.7317C29.8699 65.9145 29.7825 66.1618 29.7825 66.4747V70.0805C29.7825 70.1799 29.7318 70.2308 29.632 70.2308H29.1501C29.0503 70.2308 28.9996 70.1817 28.9996 70.0805V66.3888C28.9996 65.7685 28.7003 65.4574 28.1002 65.4574H27.7041C27.3833 65.4574 27.1362 65.5433 26.9659 65.7133C26.7939 65.8851 26.7095 66.128 26.7095 66.4409V70.0786C26.7095 70.1787 26.6588 70.2296 26.5591 70.2296L26.5606 70.2326Z" fill="#1B1B96"/>
<path d="M34.4259 71.7947H33.9439C33.8441 71.7947 33.7935 71.7444 33.7935 71.6444V64.9242C33.7935 64.8249 33.8426 64.7739 33.9439 64.7739H34.4259C34.5257 64.7739 34.5763 64.8249 34.5763 64.9242V65.3421H34.6193C34.7973 64.9641 35.1611 64.7739 35.7106 64.7739H36.3538C36.8388 64.7739 37.2149 64.9138 37.482 65.1918C37.749 65.4697 37.8826 65.8593 37.8826 66.3581V68.6485C37.8826 69.1473 37.749 69.5357 37.482 69.8148C37.2149 70.0928 36.8373 70.2326 36.3538 70.2326H35.7106C35.1611 70.2326 34.7973 70.0437 34.6193 69.6657H34.5763V71.6444C34.5763 71.7444 34.5257 71.7947 34.4259 71.7947ZM35.571 69.5479H36.2018C36.8081 69.5479 37.1105 69.2375 37.1105 68.616V66.3906C37.1105 65.7703 36.8081 65.4586 36.2018 65.4586H35.571C35.2501 65.4586 35.003 65.5445 34.8326 65.7151C34.6607 65.8869 34.5763 66.1292 34.5763 66.4428V68.5607C34.5763 68.8755 34.6607 69.1178 34.8326 69.2884C35.003 69.4602 35.2501 69.5449 35.571 69.5449V69.5479Z" fill="#1B1B96"/>
<path d="M39.4341 70.2326H38.9522C38.8524 70.2326 38.8018 70.1829 38.8018 70.0817V64.9242C38.8018 64.8249 38.8509 64.7739 38.9522 64.7739H39.4341C39.5339 64.7739 39.5846 64.8249 39.5846 64.9242V65.3525H39.6276C39.6997 65.196 39.8348 65.0611 40.0343 64.9457C40.2338 64.8322 40.4702 64.7739 40.7404 64.7739H41.1579C41.25 64.7739 41.2976 64.8249 41.2976 64.9242V65.3206C41.2976 65.3709 41.2869 65.4077 41.2654 65.4323C41.2439 65.4574 41.2086 65.4666 41.1594 65.4586H40.5808C40.26 65.4586 40.0128 65.5556 39.8425 65.747C39.6705 65.939 39.5861 66.2029 39.5861 66.5391V70.0805C39.5861 70.1799 39.5354 70.2308 39.4357 70.2308L39.4341 70.2326Z" fill="#1B1B96"/>
<path d="M45.5539 70.2326H43.2852C42.794 70.2326 42.4056 70.0928 42.1248 69.8148C41.8423 69.5369 41.7026 69.1485 41.7026 68.6485V66.3581C41.7026 65.8593 41.8439 65.4697 42.1248 65.1918C42.4056 64.9138 42.794 64.7739 43.2852 64.7739H44.1847C44.6774 64.7739 45.0627 64.9138 45.3405 65.1918C45.6183 65.4697 45.758 65.8593 45.758 66.3581V67.7165C45.758 67.8239 45.7088 67.876 45.6075 67.876H42.5791C42.5069 67.876 42.4717 67.9085 42.4717 67.973V68.6252C42.4717 69.2454 42.7709 69.5571 43.3711 69.5571H45.5538C45.6536 69.5571 45.7042 69.6062 45.7042 69.7056V70.0909C45.7042 70.1836 45.6552 70.2308 45.5538 70.2308L45.5539 70.2326ZM42.5791 67.3116H44.8907C44.9629 67.3116 44.9967 67.276 44.9967 67.2042V66.3796C44.9967 65.7654 44.6974 65.4586 44.0972 65.4586H43.3696C42.771 65.4586 42.4701 65.7654 42.4701 66.3796V67.2042C42.4701 67.276 42.507 67.3116 42.5776 67.3116H42.5791Z" fill="#1B1B96"/>
<path d="M48.4747 70.2326H46.5699C46.4701 70.2326 46.4194 70.1829 46.4194 70.0817V69.7074C46.4194 69.6154 46.4686 69.5676 46.5699 69.5676H48.3673C48.9229 69.5676 49.2008 69.3608 49.2008 68.9479V68.7448C49.2008 68.3675 49.0197 68.1067 48.6543 67.9638L47.3926 67.4281C47.0289 67.279 46.7679 67.1011 46.6113 66.8986C46.4548 66.6956 46.3765 66.4256 46.3765 66.0912C46.3765 65.2132 46.8584 64.7739 47.8208 64.7739H49.5753C49.6751 64.7739 49.7257 64.8249 49.7257 64.9242V65.2991C49.7257 65.3912 49.6751 65.439 49.5753 65.439H47.959C47.7026 65.439 47.5077 65.4924 47.3757 65.5985C47.2437 65.7059 47.1777 65.8298 47.1777 65.9728V66.1556C47.1777 66.455 47.3803 66.6833 47.7871 66.8403L49.0488 67.4067C49.4203 67.549 49.672 67.738 49.804 67.973C49.936 68.2079 50.002 68.5331 50.002 68.9479C50.002 69.8044 49.4924 70.2308 48.4717 70.2308L48.4747 70.2326Z" fill="#1B1B96"/>
<path d="M52.8404 70.2326H52.2833C51.7921 70.2326 51.4037 70.0928 51.1229 69.8148C50.8404 69.5369 50.7007 69.1485 50.7007 68.6485V66.3581C50.7007 65.8593 50.8419 65.4697 51.1229 65.1918C51.4037 64.9138 51.7921 64.7739 52.2833 64.7739H54.6057C54.7054 64.7739 54.756 64.8249 54.756 64.9242V70.0817C54.756 70.1817 54.707 70.2326 54.6057 70.2326H54.1237C54.0239 70.2326 53.9747 70.1829 53.9747 70.0817V69.6645H53.9318C53.7538 70.0418 53.39 70.2308 52.8404 70.2308V70.2326ZM53.9747 68.5626V65.5556C53.9747 65.4912 53.9379 65.4586 53.8673 65.4586H52.3692C51.7767 65.4586 51.4804 65.7685 51.4804 66.3906V68.6159C51.4804 69.2362 51.7767 69.5479 52.3692 69.5479H52.9786C53.3009 69.5479 53.5465 69.462 53.7169 69.2915C53.8888 69.1197 53.9747 68.8767 53.9747 68.5638V68.5626Z" fill="#1B1B96"/>
<path d="M58.1602 70.0817V63.5014C58.1602 63.402 58.2093 63.3511 58.3091 63.3511H60.8233C61.3161 63.3511 61.7016 63.4879 61.9789 63.7628C62.2569 64.037 62.3968 64.4211 62.3968 64.9119V65.5016C62.3968 66.1372 62.0973 66.547 61.4985 66.7323C61.7691 66.7538 62.0004 66.8741 62.1943 67.09C62.3857 67.3084 62.4826 67.595 62.4826 67.9514V68.6681C62.4826 69.1607 62.3415 69.543 62.0605 69.8178C61.7783 70.0927 61.3911 70.2289 60.9001 70.2289H58.3106C58.2108 70.2289 58.1617 70.1798 58.1617 70.0786L58.1602 70.0817ZM59.0489 66.401H60.6959C61.3237 66.401 61.6366 66.0985 61.6366 65.4905V64.9242C61.6366 64.318 61.3345 64.0155 60.7282 64.0155H59.0489C58.9768 64.0155 58.9414 64.0511 58.9414 64.1229V66.3059C58.9414 66.3703 58.9783 66.4028 59.0489 66.4028V66.401ZM59.0489 69.5675H60.8034C61.4175 69.5675 61.7231 69.265 61.7231 68.6589V67.9637C61.7231 67.3575 61.3942 67.0532 60.7389 67.0532H59.0489C58.9767 67.0532 58.9414 67.0857 58.9414 67.1501V69.462C58.9414 69.5338 58.9783 69.5675 59.0489 69.5675Z" fill="#1B1B96"/>
<path d="M65.125 66.4439H65.7447C66.3508 66.4439 66.6533 66.1415 66.6533 65.5353V64.926C66.6533 64.3198 66.3508 64.0174 65.7447 64.0174H65.0066C64.4065 64.0174 64.1071 64.3198 64.1071 64.926V65.2684C64.1071 65.3758 64.058 65.4279 63.9568 65.4279H63.4745C63.3751 65.4279 63.3242 65.3739 63.3242 65.2684V64.915C63.3242 64.4223 63.4653 64.0401 63.7463 63.7658C64.0286 63.4909 64.4157 63.3541 64.9066 63.3541H65.8367C66.3294 63.3541 66.7165 63.4909 66.9975 63.7658C67.2798 64.0401 67.4196 64.4241 67.4196 64.915V65.5463C67.4196 66.1813 67.1264 66.5912 66.5417 66.7771C67.1264 66.9262 67.4196 67.333 67.4196 67.9974V68.6711C67.4196 69.1638 67.2785 69.546 66.9975 69.8209C66.7147 70.0958 66.3281 70.2326 65.8367 70.2326H64.9066C64.4139 70.2326 64.0273 70.0958 63.7463 69.8209C63.4641 69.546 63.3242 69.1626 63.3242 68.6711V68.2429C63.3242 68.1373 63.3733 68.0833 63.4745 68.0833H63.9568C64.0562 68.0833 64.1071 68.1373 64.1071 68.2429V68.6607C64.1071 69.2669 64.4065 69.5693 65.0066 69.5693H65.7447C66.3508 69.5693 66.6533 69.2669 66.6533 68.6607V68.0079C66.6533 67.4017 66.3508 67.0992 65.7447 67.0992H65.125C65.025 67.0992 64.974 67.0501 64.974 66.9507V66.5973C64.974 66.4979 65.0231 66.447 65.125 66.447V66.4439Z" fill="#1B1B96"/>
</svg>
